<?xml version="1.0" encoding="utf-8"?>
<!-- Generator: Adobe Illustrator 19.0.1, SVG Export Plug-In . SVG Version: 6.00 Build 0)  -->
<svg version="1.1" id="Layer_1" xmlns="http://www.w3.org/2000/svg" xmlns:xlink="http://www.w3.org/1999/xlink" x="0px" y="0px"
	 viewBox="0 0 476.5 141" style="enable-background:new 0 0 476.5 141;" xml:space="preserve">
<style type="text/css">
	.st0{fill:none;}
	.st1{fill:#231F20;}
	.st2{fill:#F2DB79;}
	.st3{fill:#D19000;}
	.st4{opacity:0.44;fill:#465666;}
</style>
<polygon class="st0" points="463.7,105.5 464.1,56.4 463.5,105.5 "/>
<polygon class="st0" points="85.3,14.1 78.3,13.9 85.4,14.1 "/>
<polygon class="st0" points="43.8,13.2 48.9,40.6 44,13.2 "/>
<polygon class="st0" points="129.4,107.2 153.3,107.3 172.3,107.2 105,107.1 110.2,107.1 "/>
<polygon class="st1" points="324.5,119.5 304.9,120.1 280.5,120.8 141.3,124.9 116.9,125.6 97.4,126.2 73,126.9 47.2,127.6 
	33.5,33.7 14.4,12 0.7,11.6 27.6,42 41.3,136 67.1,135.2 91.4,134.5 111,133.9 135.4,133.2 274.6,129.1 299,128.4 318.6,127.8 
	342.9,127.1 464.5,123.5 464.6,115.4 348.8,118.8 "/>
<polygon class="st2" points="379.1,15.5 380.2,15.5 377.3,20.5 362.6,20.2 362.5,20.2 381.5,20.7 385.3,14.2 366.4,13.6 365.5,15.1 
	"/>
<polygon class="st2" points="313.3,107.5 304.9,120.1 324.5,119.5 332.6,107.5 "/>
<polygon class="st2" points="380.2,15.5 379.1,15.5 365.5,15.1 362.6,20.2 377.3,20.5 "/>
<polygon class="st2" points="334.7,19.6 334.7,19.6 338.9,19.7 342.8,12.9 208.2,9.1 203.8,16.7 "/>
<polygon class="st2" points="172.3,107.2 153.3,107.3 141.3,124.9 280.5,120.8 289.4,107.5 "/>
<polygon class="st2" points="334.7,19.6 334.7,19.6 203.8,16.7 203.8,16.7 "/>
<polygon class="st2" points="175.9,16.1 176,16.1 180.1,16.2 184.6,8.4 165.7,7.9 161.1,15.7 "/>
<polygon class="st2" points="176,16.1 175.9,16.1 161.1,15.7 161.1,15.8 "/>
<polygon class="st2" points="110.2,107.1 97.4,126.2 116.9,125.6 129.4,107.2 "/>
<polygon class="st2" points="408.8,14.8 405.2,21.1 464.3,22.4 464.3,22.5 464.5,22.5 464.5,24.9 465.7,25 464.6,115.4 470.4,115.2 
	471.6,16.6 "/>
<polygon class="st2" points="464.5,24.9 464.1,56.4 463.7,105.5 463.5,105.5 463.5,107.8 356.5,107.6 348.8,118.8 464.6,115.4 
	465.7,25 "/>
<polygon class="st2" points="464.3,22.5 464.3,22.4 405.2,21.1 405.2,21.2 "/>
<polygon class="st2" points="133.2,15.1 137.5,15.2 142.1,7.2 6.6,3.3 14.4,12 85.3,14.1 "/>
<polygon class="st2" points="47.2,127.6 73,126.9 86.3,107.1 60.8,107 48.9,40.6 43.8,13.2 44,13.2 44,13.1 78.3,13.9 85.3,14.1 
	14.4,12 33.5,33.7 "/>
<polygon class="st2" points="133.3,15.1 133.2,15.1 85.3,14.1 85.4,14.1 "/>
<polygon class="st3" points="156.9,15.6 161.1,15.7 165.7,7.9 142.1,7.2 137.5,15.2 "/>
<polygon class="st3" points="161.1,15.8 161.1,15.7 156.9,15.6 157,15.7 "/>
<polygon class="st3" points="105,107.1 86.3,107.1 73,126.9 97.4,126.2 110.2,107.1 "/>
<polygon class="st3" points="157,15.7 156.9,15.6 137.5,15.2 137.5,15.2 "/>
<polygon class="st3" points="199.6,16.6 199.5,16.6 203.8,16.7 208.2,9.1 184.6,8.4 180.1,16.2 "/>
<polygon class="st3" points="203.8,16.7 199.5,16.6 199.6,16.6 203.8,16.7 "/>
<polygon class="st3" points="129.4,107.2 116.9,125.6 141.3,124.9 153.3,107.3 "/>
<polygon class="st3" points="362.5,20.2 362.6,20.2 358.3,20.1 361.3,15 365.5,15.1 366.4,13.6 342.8,12.9 338.9,19.7 "/>
<polygon class="st3" points="361.3,15 358.3,20.1 362.6,20.2 365.5,15.1 "/>
<polygon class="st3" points="289.4,107.5 280.5,120.8 304.9,120.1 313.3,107.5 "/>
<polygon class="st3" points="401,21.1 401,21 405.2,21.1 408.8,14.8 385.3,14.2 381.5,20.7 "/>
<polygon class="st3" points="401,21.1 405.2,21.2 405.2,21.1 401,21 "/>
<polygon class="st3" points="324.5,119.5 348.8,118.8 356.5,107.6 332.6,107.5 "/>
<polygon class="st4" points="85.4,14.1 78.3,13.9 44,13.2 48.9,40.6 61.2,106.9 86.3,107 105,107.1 172.3,107.2 289.8,106.8 
	313.7,106.9 332.9,107 356.8,107.1 463.5,105.5 464.1,56.4 464.3,22.5 "/>
<polygon class="st2" points="332.6,107.5 332.9,107 313.7,106.9 313.3,107.5 "/>
<polygon class="st2" points="289.8,106.8 172.3,107.2 289.4,107.5 "/>
<polygon class="st2" points="464.5,24.9 464.5,22.5 464.3,22.5 464.3,24.9 "/>
<polygon class="st4" points="464.5,24.9 464.5,22.5 464.3,22.5 464.3,24.9 "/>
<polygon class="st2" points="464.1,56.4 464.5,24.9 464.3,24.9 "/>
<polygon class="st4" points="464.1,56.4 464.5,24.9 464.3,24.9 "/>
<polygon class="st2" points="356.5,107.6 463.5,107.8 463.5,105.5 356.8,107.1 "/>
<polygon class="st2" points="44,13.1 44,13.2 78.3,13.9 "/>
<polygon class="st4" points="44,13.1 44,13.2 78.3,13.9 "/>
<polygon class="st2" points="61.2,106.9 48.9,40.6 60.8,107 86.3,107.1 86.3,107 "/>
<polygon class="st4" points="61.2,106.9 48.9,40.6 60.8,107 86.3,107.1 86.3,107 "/>
<polygon class="st3" points="86.3,107 86.3,107.1 105,107.1 "/>
<polygon class="st4" points="86.3,107 86.3,107.1 105,107.1 "/>
<polygon class="st3" points="313.3,107.5 313.7,106.9 289.8,106.8 289.4,107.5 "/>
<polygon class="st3" points="332.9,107 332.6,107.5 356.5,107.6 356.8,107.1 "/>
</svg>
