<?xml version="1.0" encoding="utf-8"?>
<!-- Generator: Adobe Illustrator 19.0.1, SVG Export Plug-In . SVG Version: 6.00 Build 0)  -->
<svg version="1.1" id="Layer_1" xmlns="http://www.w3.org/2000/svg" xmlns:xlink="http://www.w3.org/1999/xlink" x="0px" y="0px"
	 viewBox="-119.9 110 870 247.1" style="enable-background:new -119.9 110 870 247.1;" xml:space="preserve">
<style type="text/css">
	.st0{fill:none;}
	.st1{fill:#231F20;}
	.st2{fill:#F2DB79;}
	.st3{fill:#D19000;}
	.st4{fill:#465666;}
	.st5{opacity:0.44;fill:#465666;enable-background:new    ;}
</style>
<polygon class="st0" points="730.2,301.2 730.9,207.8 729.8,301.2 "/>
<polygon class="st0" points="6.2,132.5 -7.1,132.2 6.4,132.5 "/>
<polygon class="st0" points="-73.1,130.9 -63.4,179.7 -72.8,130.9 "/>
<polygon class="st0" points="90.6,298.2 136.3,298.4 172.7,298.2 43.9,298.1 53.9,298.1 "/>
<polygon class="st1" points="463.8,326.1 426.4,327.2 379.7,328.4 113.4,329.7 66.7,331 29.4,332.1 -17.3,333.3 -66.6,334.5 
	-92.8,167.4 -104.3,128.8 -115,129 -77.9,349.5 -28.6,348.1 17.9,346.8 55.4,345.8 102.1,344.5 368.4,343.2 415.1,342 452.6,340.9 
	499,339.7 731.7,333.3 731.9,318.8 510.3,324.9 "/>
<polygon class="st2" points="570.4,128 572.5,128 567,136.9 539.3,136.4 539.1,136.4 575,137.3 582.1,125.7 546.4,124.6 
	544.7,127.3 "/>
<polygon class="st2" points="446.2,304.8 430.3,327.2 467.3,326.1 482.6,304.8 "/>
<polygon class="st2" points="572.5,128 570.4,128 544.7,127.3 539.3,136.4 567,136.9 "/>
<polygon class="st2" points="491.8,135.3 491.8,135.3 500.1,135.5 507.9,123.4 241.6,123.6 232.9,137.2 "/>
<polygon class="st2" points="173.7,298.2 136.7,298.4 113.4,329.7 384.4,328.4 401.7,304.8 "/>
<polygon class="st2" points="483.4,135.3 483.4,135.3 232.9,137.2 232.9,137.2 "/>
<polygon class="st2" points="179.6,136.1 179.8,136.1 187.6,136.3 196.2,122.4 160.1,121.5 151.3,135.4 "/>
<polygon class="st2" points="179.8,136.1 179.6,136.1 151.3,135.4 151.3,135.5 "/>
<polygon class="st2" points="53.9,298.1 29.4,332.1 66.7,331 90.6,298.2 "/>
<polygon class="st2" points="626.5,126.8 619.7,138 731.3,140.3 731.3,140.5 731.7,140.5 731.7,144.7 733.9,144.9 731.9,318.8 
	742.8,318.5 745.1,130 "/>
<polygon class="st2" points="731.7,144.7 730.9,207.8 730.2,301.2 729.8,301.2 729.8,305.3 527.8,305 513.2,324.9 731.9,318.8 
	733.9,144.9 "/>
<polygon class="st2" points="731.3,140.5 731.3,140.3 619.7,138 619.7,138.2 "/>
<polygon class="st2" points="97.9,134.3 106.1,134.5 114.9,120.2 -104.3,115.8 -104.3,128.8 "/>
<polygon class="st2" points="-66.6,334.5 -17.3,333.3 8.2,298.1 -40.6,297.9 -63.4,179.7 -73.1,130.9 -72.8,130.9 -72.8,130.7 
	-7.1,132.2 6.2,132.5 -104.3,128.8 -92.8,167.4 "/>
<polygon class="st2" points="98.1,134.3 97.9,134.3 6.2,132.5 6.4,132.5 "/>
<polygon class="st3" points="143.2,135.2 151.3,135.4 160.1,121.5 114.9,120.2 106.1,134.5 "/>
<polygon class="st3" points="151.3,135.5 151.3,135.4 143.2,135.2 143.4,135.4 "/>
<polygon class="st3" points="43.9,298.1 8.2,298.1 -17.3,333.3 29.4,332.1 53.9,298.1 "/>
<polygon class="st3" points="143.4,135.4 143.2,135.2 106.1,134.5 106.1,134.5 "/>
<polygon class="st3" points="224.9,137 224.7,137 232.9,137.2 241.4,123.6 196.2,122.4 187.6,136.3 "/>
<polygon class="st3" points="232.9,137.2 224.7,137 224.9,137 "/>
<polygon class="st3" points="90.6,298.2 66.7,331 113.4,329.7 136.3,298.4 "/>
<polygon class="st3" points="539.1,136.4 539.3,136.4 531.2,136.2 536.8,127.1 544.7,127.3 546.4,124.6 501.9,123.4 494.5,135.5 "/>
<polygon class="st3" points="536.8,127.1 531.2,136.2 539.3,136.4 544.7,127.3 "/>
<polygon class="st3" points="401.1,304.8 384.3,328.4 430.3,327.2 446.2,304.8 "/>
<polygon class="st3" points="611.8,138 611.8,137.8 619.7,138 626.5,126.8 582.1,125.7 575,137.3 "/>
<polygon class="st3" points="611.8,138 619.7,138.2 619.7,138 611.8,137.8 "/>
<polygon class="st3" points="467.3,326.1 513.2,324.9 527.8,305 482.6,304.8 "/>
<polygon class="st4" points="6.4,132.5 -7.1,132.2 -72.8,130.9 -63.4,179.7 -39.9,297.7 8.2,297.9 43.9,298.1 172.7,298.2 
	397.5,303.5 443.2,303.7 479.9,303.9 525.6,304.1 729.8,301.2 730.9,207.8 731.3,138.5 "/>
<polygon class="st2" points="482.6,304.8 483.2,303.9 446.9,303.7 446.2,304.8 "/>
<polygon class="st2" points="397.5,303.5 172.7,298.2 396.7,304.8 "/>
<polygon class="st2" points="731.7,144.7 731.7,140.5 731.3,140.5 731.3,144.7 "/>
<polygon class="st5" points="731.7,144.7 731.7,140.5 731.3,140.5 731.3,144.7 "/>
<polygon class="st2" points="730.9,207.8 731.7,144.7 731.3,144.7 "/>
<polygon class="st5" points="730.9,207.8 731.7,144.7 731.3,144.7 "/>
<polygon class="st2" points="527.8,305 729.8,305.3 729.8,301.2 528.3,304.1 "/>
<polygon class="st2" points="-72.8,130.7 -72.8,130.9 -7.1,132.2 "/>
<polygon class="st5" points="-72.8,130.7 -72.8,130.9 -7.1,132.2 "/>
<polygon class="st2" points="-39.9,297.7 -63.4,179.7 -40.6,297.9 8.2,298.1 8.2,297.9 "/>
<polygon class="st5" points="-39.9,297.7 -63.4,179.7 -40.6,297.9 8.2,298.1 8.2,297.9 "/>
<polygon class="st3" points="8.2,297.9 8.2,298.1 43.9,298.1 "/>
<polygon class="st5" points="8.2,297.9 8.2,298.1 43.9,298.1 "/>
<polygon class="st3" points="446.2,304.8 446.9,303.7 401.8,303.5 401.1,304.8 "/>
<polygon class="st3" points="483.2,303.9 482.6,304.8 527.8,305 528.3,304.1 "/>
</svg>
