<?xml version="1.0" encoding="utf-8"?>
<!-- Generator: Adobe Illustrator 19.0.1, SVG Export Plug-In . SVG Version: 6.00 Build 0)  -->
<svg version="1.1" id="Layer_1" xmlns="http://www.w3.org/2000/svg" xmlns:xlink="http://www.w3.org/1999/xlink" x="0px" y="0px"
	 viewBox="-119.9 110 583.4 247.1" style="enable-background:new -119.9 110 583.4 247.1;" xml:space="preserve">
<style type="text/css">
	.st0{fill:none;}
	.st1{fill:#231F20;}
	.st2{fill:#F2DB79;}
	.st3{fill:#D19000;}
	.st4{fill:#465666;}
	.st5{opacity:0.44;fill:#465666;enable-background:new    ;}
</style>
<polygon class="st0" points="448.6,301.2 449.1,207.8 448.4,301.2 "/>
<polygon class="st0" points="-29.1,132.5 -37.9,132.2 -28.9,132.5 "/>
<polygon class="st0" points="-81.4,130.9 -75,179.7 -81.2,130.9 "/>
<polygon class="st0" points="26.6,298.2 56.8,298.4 80.8,298.2 -4.2,298.1 2.4,298.1 "/>
<polygon class="st1" points="272.9,326.1 248.2,327.2 217.4,328.4 41.6,329.7 10.8,331 -13.8,332.1 -44.6,333.3 -77.2,334.5 
	-94.4,167.4 -102,128.8 -119.3,128.1 -101.9,182.2 -84.6,349.5 -52,348.1 -21.4,346.8 3.4,345.8 34.2,344.5 209.9,343.2 240.7,342 
	265.5,340.9 296.1,339.7 449.6,333.3 449.8,318.8 303.6,324.9 "/>
<polygon class="st2" points="341.8,135 343.2,135 339.6,143.9 321,143.4 320.9,143.4 344.9,144.3 349.7,132.7 325.8,131.6 
	324.7,134.3 "/>
<polygon class="st2" points="258.8,304.8 248.2,327.2 272.9,326.1 283.1,304.8 "/>
<polygon class="st2" points="343.2,135 341.8,135 324.7,134.3 321,143.4 339.6,143.9 "/>
<polygon class="st2" points="285.8,142.3 285.8,142.3 291.1,142.5 296,130.4 126.1,123.6 120.5,137.2 "/>
<polygon class="st2" points="80.8,298.2 56.8,298.4 41.6,329.7 217.4,328.4 228.6,304.8 "/>
<polygon class="st2" points="285.8,142.3 285.8,142.3 120.5,137.2 120.5,137.2 "/>
<polygon class="st2" points="85.3,136.1 85.4,136.1 90.6,136.3 96.3,122.4 72.4,121.5 66.6,135.4 "/>
<polygon class="st2" points="85.4,136.1 85.3,136.1 66.6,135.4 66.6,135.5 "/>
<polygon class="st2" points="2.4,298.1 -13.8,332.1 10.8,331 26.6,298.2 "/>
<polygon class="st2" points="379.3,133.8 374.8,145 449.4,147.3 449.4,147.5 449.6,147.5 449.6,151.7 451.2,151.9 449.8,318.8 
	457.1,318.5 458.6,137 "/>
<polygon class="st2" points="449.6,151.7 449.1,207.8 448.6,301.2 448.4,301.2 448.4,305.3 313.3,305 303.6,324.9 449.8,318.8 
	451.2,151.9 "/>
<polygon class="st2" points="449.4,147.5 449.4,147.3 374.8,145 374.8,145.2 "/>
<polygon class="st2" points="31.4,134.3 36.8,134.5 42.6,120.2 -111.8,113.3 -102,128.8 -29.1,132.5 "/>
<polygon class="st2" points="-77.2,334.5 -44.6,333.3 -27.8,298.1 -60,297.9 -75,179.7 -81.4,130.9 -81.2,130.9 -81.2,130.7 
	-37.9,132.2 -29.1,132.5 -102,128.8 -94.4,167.4 "/>
<polygon class="st2" points="31.5,134.3 31.4,134.3 -29.1,132.5 -28.9,132.5 "/>
<polygon class="st3" points="61.3,135.2 66.6,135.4 72.4,121.5 42.6,120.2 36.8,134.5 "/>
<polygon class="st3" points="66.6,135.5 66.6,135.4 61.3,135.2 61.5,135.4 "/>
<polygon class="st3" points="-4.2,298.1 -27.8,298.1 -44.6,333.3 -13.8,332.1 2.4,298.1 "/>
<polygon class="st3" points="61.5,135.4 61.3,135.2 36.8,134.5 36.8,134.5 "/>
<polygon class="st3" points="115.2,137 115.1,137 120.5,137.2 126.1,123.6 96.3,122.4 90.6,136.3 "/>
<polygon class="st3" points="120.5,137.2 115.1,137 115.2,137 "/>
<polygon class="st3" points="26.6,298.2 10.8,331 41.6,329.7 56.8,298.4 "/>
<polygon class="st3" points="320.9,143.4 321,143.4 315.6,143.2 319.4,134.1 324.7,134.3 325.8,131.6 296,130.4 291.1,142.5 "/>
<polygon class="st3" points="319.4,134.1 315.6,143.2 321,143.4 324.7,134.3 "/>
<polygon class="st3" points="228.6,304.8 217.4,328.4 248.2,327.2 258.8,304.8 "/>
<polygon class="st3" points="369.5,145 369.5,144.8 374.8,145 379.3,133.8 349.7,132.7 344.9,144.3 "/>
<polygon class="st3" points="369.5,145 374.8,145.2 374.8,145 369.5,144.8 "/>
<polygon class="st3" points="272.9,326.1 303.6,324.9 313.3,305 283.1,304.8 "/>
<polygon class="st4" points="-28.9,132.5 -37.9,132.2 -81.2,130.9 -75,179.7 -59.5,297.7 -27.8,297.9 -4.2,298.1 80.8,298.2 
	229.1,303.5 259.3,303.7 283.5,303.9 313.7,304.1 448.4,301.2 449.1,207.8 449.4,147.5 "/>
<polygon class="st2" points="283.1,304.8 283.5,303.9 259.3,303.7 258.8,304.8 "/>
<polygon class="st2" points="229.1,303.5 80.8,298.2 228.6,304.8 "/>
<polygon class="st2" points="449.6,151.7 449.6,147.5 449.4,147.5 449.4,151.7 "/>
<polygon class="st5" points="449.6,151.7 449.6,147.5 449.4,147.5 449.4,151.7 "/>
<polygon class="st2" points="449.1,207.8 449.6,151.7 449.4,151.7 "/>
<polygon class="st5" points="449.1,207.8 449.6,151.7 449.4,151.7 "/>
<polygon class="st2" points="313.3,305 448.4,305.3 448.4,301.2 313.7,304.1 "/>
<polygon class="st2" points="-81.2,130.7 -81.2,130.9 -37.9,132.2 "/>
<polygon class="st5" points="-81.2,130.7 -81.2,130.9 -37.9,132.2 "/>
<polygon class="st2" points="-59.5,297.7 -75,179.7 -60,297.9 -27.8,298.1 -27.8,297.9 "/>
<polygon class="st5" points="-59.5,297.7 -75,179.7 -60,297.9 -27.8,298.1 -27.8,297.9 "/>
<polygon class="st3" points="-27.8,297.9 -27.8,298.1 -4.2,298.1 "/>
<polygon class="st5" points="-27.8,297.9 -27.8,298.1 -4.2,298.1 "/>
<polygon class="st3" points="258.8,304.8 259.3,303.7 229.1,303.5 228.6,304.8 "/>
<polygon class="st3" points="283.5,303.9 283.1,304.8 313.3,305 313.7,304.1 "/>
</svg>
